<svg width="32" height="30" viewBox="0 0 32 30" fill="none" xmlns="http://www.w3.org/2000/svg">
<path d="M16 0C7.16 0 0 6.88228 0 15.3794C0 22.1848 4.58 27.9329 10.94 29.9706C11.74 30.1052 12.04 29.6438 12.04 29.2401C12.04 28.8748 12.02 27.6637 12.02 26.3757C8 27.087 6.96 25.4337 6.64 24.5686C6.46 24.1264 5.68 22.7615 5 22.3963C4.44 22.1079 3.64 21.3966 4.98 21.3774C6.24 21.3582 7.14 22.4924 7.44 22.9538C8.88 25.2799 11.18 24.6263 12.1 24.2226C12.24 23.2229 12.66 22.5501 13.12 22.1656C9.56 21.7811 5.84 20.4546 5.84 14.572C5.84 12.8995 6.46 11.5153 7.48 10.4388C7.32 10.0543 6.76 8.4779 7.64 6.36323C7.64 6.36323 8.98 5.95952 12.04 7.93962C13.32 7.59358 14.68 7.42056 16.04 7.42056C17.4 7.42056 18.76 7.59358 20.04 7.93962C23.1 5.9403 24.44 6.36323 24.44 6.36323C25.32 8.4779 24.76 10.0543 24.6 10.4388C25.62 11.5153 26.24 12.8803 26.24 14.572C26.24 20.4738 22.5 21.7811 18.94 22.1656C19.52 22.6462 20.02 23.5689 20.02 25.0108C20.02 27.0678 20 28.721 20 29.2401C20 29.6438 20.3 30.1244 21.1 29.9706C24.2768 28.9407 27.0373 26.9787 28.9928 24.361C30.9483 21.7434 32 18.602 32 15.3794C32 6.88228 24.84 0 16 0Z" fill="#F4F9E9"/>
</svg>
