<svg width="56" height="56" viewBox="0 0 56 56" fill="none" xmlns="http://www.w3.org/2000/svg">
<circle cx="28" cy="28" r="27.5" fill="#00233A" stroke="#F4F9E9"/>
<path d="M31.1107 13.3333C31.5366 13.3333 31.7496 13.5343 31.7496 13.9362V15.142C31.7496 15.5439 31.5366 15.7449 31.1107 15.7449H30.8551C29.7761 15.7449 29.0237 16.12 28.5978 16.8703C28.1719 17.6205 27.9589 18.5181 27.9589 19.5631V34.7156C27.9589 35.8678 27.8027 36.9932 27.4904 38.0917C27.2065 39.1903 26.7095 40.1951 25.9997 41.1062C25.3182 41.9904 24.367 42.7005 23.146 43.2363C21.9535 43.7455 20.4344 44 18.5887 44C17.1122 44 15.8629 43.7856 14.8407 43.3569C13.8469 42.9014 13.0376 42.3521 12.4129 41.709C11.8166 41.066 11.3765 40.4497 11.0926 39.8602C10.8086 39.2707 10.6667 38.8286 10.6667 38.5339C10.6667 38.1319 10.8938 37.8104 11.3481 37.5692L15.3092 35.5596C15.5647 35.4257 15.7635 35.3587 15.9055 35.3587C16.1894 35.3587 16.3314 35.5328 16.3314 35.8812C16.3314 36.0955 16.303 36.3233 16.2462 36.5644C16.2178 36.8056 16.2036 37.1539 16.2036 37.6094C16.2036 38.0917 16.2604 38.6276 16.374 39.2171C16.4875 39.7798 16.7147 40.2755 17.0554 40.7042C17.3962 41.1062 17.9073 41.3071 18.5887 41.3071C19.4406 41.3071 20.0794 41.0258 20.5054 40.4631C20.9597 39.8736 21.1868 39.1635 21.1868 38.3329V19.5631C21.1868 18.4913 20.9739 17.5937 20.5479 16.8703C20.122 16.12 19.3696 15.7449 18.2906 15.7449H17.9924C17.5665 15.7449 17.3536 15.5439 17.3536 15.142V13.9362C17.3536 13.5343 17.5665 13.3333 17.9924 13.3333H31.1107Z" fill="#F4F9E9"/>
<path d="M40.2519 37.2477C40.2519 38.3195 40.4649 39.2305 40.8908 39.9808C41.3167 40.7042 42.055 41.066 43.1056 41.066H43.3611C43.787 41.066 44 41.2669 44 41.6689V42.8746C44 43.2765 43.787 43.4775 43.3611 43.4775H30.2855C29.8596 43.4775 29.6466 43.2765 29.6466 42.8746V41.6689C29.6466 41.2669 29.8596 41.066 30.2855 41.066H30.5836C31.6626 41.066 32.4009 40.7042 32.7984 39.9808C33.2243 39.2305 33.4373 38.3195 33.4373 37.2477V19.5631C33.4373 18.4913 33.2243 17.5937 32.7984 16.8703C32.4009 16.12 31.6626 15.7449 30.5836 15.7449H30.2855C29.8596 15.7449 29.6466 15.5439 29.6466 15.142V13.9362C29.6466 13.5343 29.8596 13.3333 30.2855 13.3333H43.3611C43.787 13.3333 44 13.5343 44 13.9362V15.142C44 15.5439 43.787 15.7449 43.3611 15.7449H43.1056C42.055 15.7449 41.3167 16.12 40.8908 16.8703C40.4649 17.5937 40.2519 18.4913 40.2519 19.5631V37.2477Z" fill="#F4F9E9"/>
</svg>
